<svg width="328" height="50" viewBox="0 0 328 50" fill="none" xmlns="http://www.w3.org/2000/svg">
<g clip-path="url(#clip0_20_5)">
<path d="M33.3333 6.25H16.6667C14.3687 6.25 12.5 8.11875 12.5 10.4167V39.5833C12.5 41.8812 14.3687 43.75 16.6667 43.75H33.3333C35.6312 43.75 37.5 41.8812 37.5 39.5833V10.4167C37.5 8.11875 35.6312 6.25 33.3333 6.25ZM4.16666 14.5833V35.4167C4.16666 37.7146 6.03541 39.5833 8.33332 39.5833V10.4167C6.03541 10.4167 4.16666 12.2854 4.16666 14.5833ZM41.6667 10.4167V39.5833C43.9646 39.5833 45.8333 37.7146 45.8333 35.4167V14.5833C45.8333 12.2854 43.9646 10.4167 41.6667 10.4167Z" fill="white"/>
<path d="M80.7472 21.304H74.3551C74.2699 20.6477 74.0952 20.0554 73.831 19.527C73.5668 18.9986 73.2173 18.5469 72.7827 18.1719C72.348 17.7969 71.8324 17.5114 71.2358 17.3153C70.6477 17.1108 69.9957 17.0085 69.2798 17.0085C68.0099 17.0085 66.9148 17.3196 65.9943 17.9418C65.0824 18.5639 64.3793 19.4631 63.8849 20.6392C63.3991 21.8153 63.1562 23.2386 63.1562 24.9091C63.1562 26.6477 63.4034 28.1051 63.8977 29.2812C64.4006 30.4489 65.1037 31.331 66.0071 31.9276C66.919 32.5156 67.9972 32.8097 69.2415 32.8097C69.9403 32.8097 70.5753 32.7202 71.1463 32.5412C71.7259 32.3622 72.233 32.1023 72.6676 31.7614C73.1108 31.4119 73.473 30.9901 73.7543 30.4957C74.044 29.9929 74.2443 29.4261 74.3551 28.7955L80.7472 28.8338C80.6364 29.9929 80.2997 31.1349 79.7372 32.2599C79.1832 33.3849 78.4205 34.4119 77.4489 35.3409C76.4773 36.2614 75.2926 36.9943 73.8949 37.5398C72.5057 38.0852 70.9119 38.358 69.1136 38.358C66.7443 38.358 64.6222 37.8381 62.7472 36.7983C60.8807 35.75 59.4063 34.2244 58.3239 32.2216C57.2415 30.2187 56.7003 27.7812 56.7003 24.9091C56.7003 22.0284 57.25 19.5866 58.3494 17.5838C59.4489 15.581 60.9361 14.0597 62.8111 13.0199C64.6861 11.9801 66.7869 11.4602 69.1136 11.4602C70.6989 11.4602 72.1648 11.6818 73.5114 12.125C74.858 12.5597 76.0426 13.1989 77.0653 14.0426C78.0881 14.8778 78.919 15.9048 79.5582 17.1236C80.1974 18.3423 80.5938 19.7358 80.7472 21.304ZM89.9038 38.3324C88.6509 38.3324 87.5387 38.1236 86.5671 37.706C85.604 37.2798 84.8413 36.6406 84.2788 35.7884C83.7248 34.9276 83.4478 33.8494 83.4478 32.554C83.4478 31.4631 83.6396 30.5426 84.0231 29.7926C84.4066 29.0426 84.935 28.4332 85.6083 27.9645C86.2816 27.4957 87.0572 27.142 87.935 26.9034C88.8129 26.6562 89.7504 26.4901 90.7475 26.4048C91.864 26.3026 92.7631 26.196 93.445 26.0852C94.1268 25.9659 94.6211 25.7997 94.9279 25.5866C95.2433 25.3651 95.4009 25.054 95.4009 24.6534V24.5895C95.4009 23.9332 95.1751 23.4261 94.7234 23.0682C94.2717 22.7102 93.6623 22.5312 92.8952 22.5312C92.0685 22.5312 91.4038 22.7102 90.9009 23.0682C90.3981 23.4261 90.0785 23.9205 89.9421 24.5511L84.1765 24.3466C84.3469 23.1534 84.7859 22.0881 85.4933 21.1506C86.2092 20.2045 87.1893 19.4631 88.4336 18.9261C89.6864 18.3807 91.1907 18.108 92.9464 18.108C94.1992 18.108 95.354 18.2571 96.4109 18.5554C97.4677 18.8452 98.3881 19.2713 99.1722 19.8338C99.9563 20.3878 100.561 21.0696 100.988 21.8793C101.422 22.6889 101.64 23.6136 101.64 24.6534V38H95.7589V35.2642H95.6055C95.256 35.929 94.8086 36.4915 94.2631 36.9517C93.7262 37.4119 93.0913 37.7571 92.3583 37.9872C91.6339 38.2173 90.8157 38.3324 89.9038 38.3324ZM91.8342 34.2415C92.5075 34.2415 93.1126 34.1051 93.6495 33.8324C94.195 33.5597 94.6296 33.1847 94.9535 32.7074C95.2773 32.2216 95.4393 31.6591 95.4393 31.0199V29.1534C95.2603 29.2472 95.043 29.3324 94.7873 29.4091C94.5401 29.4858 94.2674 29.5582 93.9691 29.6264C93.6708 29.6946 93.364 29.7543 93.0487 29.8054C92.7333 29.8565 92.4308 29.9034 92.141 29.946C91.5529 30.0398 91.0501 30.1847 90.6325 30.3807C90.2234 30.5767 89.908 30.8324 89.6864 31.1477C89.4734 31.4545 89.3668 31.821 89.3668 32.2472C89.3668 32.8949 89.5969 33.3892 90.0572 33.7301C90.5259 34.071 91.1183 34.2415 91.8342 34.2415ZM105.462 38V18.3636H111.534V21.9432H111.739C112.097 20.6477 112.681 19.6847 113.49 19.054C114.3 18.4148 115.242 18.0952 116.316 18.0952C116.605 18.0952 116.904 18.1165 117.211 18.1591C117.517 18.1932 117.803 18.2486 118.067 18.3253V23.7585C117.769 23.6562 117.377 23.5753 116.891 23.5156C116.414 23.456 115.988 23.4261 115.613 23.4261C114.871 23.4261 114.202 23.5923 113.605 23.9247C113.017 24.2486 112.553 24.7045 112.212 25.2926C111.88 25.8722 111.713 26.554 111.713 27.3381V38H105.462ZM128.761 38.3707C126.699 38.3707 124.926 37.9489 123.443 37.1051C121.968 36.2528 120.831 35.0682 120.029 33.5511C119.237 32.0256 118.841 30.2571 118.841 28.2457C118.841 26.2259 119.237 24.4574 120.029 22.9403C120.831 21.4148 121.968 20.2301 123.443 19.3864C124.926 18.5341 126.699 18.108 128.761 18.108C130.824 18.108 132.592 18.5341 134.066 19.3864C135.549 20.2301 136.687 21.4148 137.48 22.9403C138.281 24.4574 138.681 26.2259 138.681 28.2457C138.681 30.2571 138.281 32.0256 137.48 33.5511C136.687 35.0682 135.549 36.2528 134.066 37.1051C132.592 37.9489 130.824 38.3707 128.761 38.3707ZM128.799 33.6534C129.549 33.6534 130.184 33.4233 130.704 32.9631C131.224 32.5028 131.62 31.8636 131.893 31.0455C132.174 30.2273 132.315 29.2812 132.315 28.2074C132.315 27.1165 132.174 26.1619 131.893 25.3438C131.62 24.5256 131.224 23.8864 130.704 23.4261C130.184 22.9659 129.549 22.7358 128.799 22.7358C128.024 22.7358 127.368 22.9659 126.831 23.4261C126.302 23.8864 125.897 24.5256 125.616 25.3438C125.343 26.1619 125.207 27.1165 125.207 28.2074C125.207 29.2812 125.343 30.2273 125.616 31.0455C125.897 31.8636 126.302 32.5028 126.831 32.9631C127.368 33.4233 128.024 33.6534 128.799 33.6534ZM154.553 29.5241V18.3636H160.792V38H154.834V34.3438H154.63C154.195 35.5455 153.453 36.5 152.405 37.2074C151.365 37.9062 150.108 38.2557 148.634 38.2557C147.296 38.2557 146.12 37.9489 145.105 37.3352C144.091 36.7216 143.303 35.8651 142.74 34.7656C142.178 33.6577 141.892 32.3622 141.884 30.8793V18.3636H148.135V29.652C148.144 30.7173 148.425 31.5568 148.979 32.1705C149.533 32.7841 150.287 33.0909 151.242 33.0909C151.864 33.0909 152.422 32.9545 152.917 32.6818C153.419 32.4006 153.816 31.9957 154.105 31.4673C154.404 30.9304 154.553 30.2827 154.553 29.5241ZM181.914 24.3594L176.174 24.5128C176.114 24.1037 175.952 23.7415 175.688 23.4261C175.424 23.1023 175.079 22.8509 174.653 22.6719C174.235 22.4844 173.749 22.3906 173.195 22.3906C172.471 22.3906 171.853 22.5355 171.342 22.8253C170.839 23.1151 170.592 23.5071 170.6 24.0014C170.592 24.3849 170.745 24.7173 171.06 24.9986C171.384 25.2798 171.96 25.5057 172.786 25.6761L176.57 26.392C178.531 26.767 179.988 27.3892 180.942 28.2585C181.906 29.1278 182.391 30.2784 182.4 31.7102C182.391 33.0568 181.991 34.2287 181.198 35.2259C180.414 36.223 179.34 36.9986 177.977 37.5526C176.613 38.098 175.053 38.3707 173.298 38.3707C170.494 38.3707 168.282 37.7955 166.663 36.6449C165.052 35.4858 164.131 33.9347 163.901 31.9915L170.076 31.8381C170.212 32.554 170.566 33.0994 171.137 33.4744C171.708 33.8494 172.437 34.0369 173.323 34.0369C174.124 34.0369 174.776 33.8878 175.279 33.5895C175.782 33.2912 176.038 32.8949 176.046 32.4006C176.038 31.9574 175.842 31.6037 175.458 31.3395C175.075 31.0668 174.474 30.8537 173.656 30.7003L170.229 30.0483C168.261 29.6903 166.795 29.0298 165.832 28.0668C164.869 27.0952 164.391 25.8594 164.4 24.3594C164.391 23.0469 164.741 21.9261 165.448 20.9972C166.156 20.0597 167.161 19.3438 168.465 18.8494C169.769 18.3551 171.308 18.108 173.08 18.108C175.739 18.108 177.836 18.6662 179.37 19.7827C180.904 20.8906 181.752 22.4162 181.914 24.3594ZM194.657 38.3707C192.603 38.3707 190.83 37.9659 189.338 37.1562C187.855 36.3381 186.713 35.1747 185.912 33.6662C185.12 32.1491 184.723 30.3466 184.723 28.2585C184.723 26.2301 185.124 24.4574 185.925 22.9403C186.726 21.4148 187.855 20.2301 189.313 19.3864C190.77 18.5341 192.488 18.108 194.465 18.108C195.863 18.108 197.141 18.3253 198.3 18.7599C199.459 19.1946 200.461 19.8381 201.304 20.6903C202.148 21.5426 202.804 22.5952 203.273 23.848C203.742 25.0923 203.976 26.5199 203.976 28.1307V29.6903H186.909V26.0597H198.159C198.151 25.3949 197.993 24.8026 197.686 24.2827C197.38 23.7628 196.958 23.358 196.421 23.0682C195.892 22.7699 195.283 22.6207 194.593 22.6207C193.894 22.6207 193.267 22.7784 192.713 23.0938C192.159 23.4006 191.721 23.8224 191.397 24.3594C191.073 24.8878 190.902 25.4886 190.885 26.1619V29.8565C190.885 30.6577 191.043 31.3608 191.358 31.9659C191.674 32.5625 192.121 33.027 192.701 33.3594C193.28 33.6918 193.971 33.858 194.772 33.858C195.326 33.858 195.828 33.7812 196.28 33.6278C196.732 33.4744 197.12 33.2486 197.444 32.9503C197.767 32.652 198.01 32.2855 198.172 31.8509L203.912 32.017C203.674 33.304 203.15 34.4247 202.34 35.3793C201.539 36.3253 200.486 37.0625 199.182 37.5909C197.878 38.1108 196.37 38.3707 194.657 38.3707ZM213.42 11.8182V38H207.169V11.8182H213.42ZM248.9 21.304H242.507C242.422 20.6477 242.248 20.0554 241.983 19.527C241.719 18.9986 241.37 18.5469 240.935 18.1719C240.5 17.7969 239.985 17.5114 239.388 17.3153C238.8 17.1108 238.148 17.0085 237.432 17.0085C236.162 17.0085 235.067 17.3196 234.147 17.9418C233.235 18.5639 232.532 19.4631 232.037 20.6392C231.551 21.8153 231.309 23.2386 231.309 24.9091C231.309 26.6477 231.556 28.1051 232.05 29.2812C232.553 30.4489 233.256 31.331 234.159 31.9276C235.071 32.5156 236.15 32.8097 237.394 32.8097C238.093 32.8097 238.728 32.7202 239.299 32.5412C239.878 32.3622 240.385 32.1023 240.82 31.7614C241.263 31.4119 241.625 30.9901 241.907 30.4957C242.196 29.9929 242.397 29.4261 242.507 28.7955L248.9 28.8338C248.789 29.9929 248.452 31.1349 247.89 32.2599C247.336 33.3849 246.573 34.4119 245.601 35.3409C244.63 36.2614 243.445 36.9943 242.047 37.5398C240.658 38.0852 239.064 38.358 237.266 38.358C234.897 38.358 232.775 37.8381 230.9 36.7983C229.033 35.75 227.559 34.2244 226.476 32.2216C225.394 30.2187 224.853 27.7812 224.853 24.9091C224.853 22.0284 225.402 19.5866 226.502 17.5838C227.601 15.581 229.088 14.0597 230.963 13.0199C232.838 11.9801 234.939 11.4602 237.266 11.4602C238.851 11.4602 240.317 11.6818 241.664 12.125C243.01 12.5597 244.195 13.1989 245.218 14.0426C246.24 14.8778 247.071 15.9048 247.711 17.1236C248.35 18.3423 248.746 19.7358 248.9 21.304ZM258.772 11.8182V38H252.521V11.8182H258.772ZM271.917 38.3707C269.855 38.3707 268.082 37.9489 266.599 37.1051C265.125 36.2528 263.987 35.0682 263.186 33.5511C262.393 32.0256 261.997 30.2571 261.997 28.2457C261.997 26.2259 262.393 24.4574 263.186 22.9403C263.987 21.4148 265.125 20.2301 266.599 19.3864C268.082 18.5341 269.855 18.108 271.917 18.108C273.98 18.108 275.748 18.5341 277.223 19.3864C278.706 20.2301 279.843 21.4148 280.636 22.9403C281.437 24.4574 281.838 26.2259 281.838 28.2457C281.838 30.2571 281.437 32.0256 280.636 33.5511C279.843 35.0682 278.706 36.2528 277.223 37.1051C275.748 37.9489 273.98 38.3707 271.917 38.3707ZM271.956 33.6534C272.706 33.6534 273.341 33.4233 273.86 32.9631C274.38 32.5028 274.777 31.8636 275.049 31.0455C275.331 30.2273 275.471 29.2812 275.471 28.2074C275.471 27.1165 275.331 26.1619 275.049 25.3438C274.777 24.5256 274.38 23.8864 273.86 23.4261C273.341 22.9659 272.706 22.7358 271.956 22.7358C271.18 22.7358 270.524 22.9659 269.987 23.4261C269.458 23.8864 269.054 24.5256 268.772 25.3438C268.5 26.1619 268.363 27.1165 268.363 28.2074C268.363 29.2812 268.5 30.2273 268.772 31.0455C269.054 31.8636 269.458 32.5028 269.987 32.9631C270.524 33.4233 271.18 33.6534 271.956 33.6534ZM291.292 26.8011V38H285.04V18.3636H290.985V21.9688H291.202C291.637 20.767 292.378 19.8253 293.426 19.1435C294.475 18.4531 295.723 18.108 297.172 18.108C298.553 18.108 299.75 18.419 300.765 19.0412C301.787 19.6548 302.58 20.5156 303.142 21.6236C303.713 22.723 303.995 24.0099 303.986 25.4844V38H297.735V26.7116C297.743 25.6207 297.466 24.7685 296.904 24.1548C296.35 23.5412 295.578 23.2344 294.59 23.2344C293.934 23.2344 293.354 23.3793 292.851 23.669C292.357 23.9503 291.973 24.3551 291.701 24.8835C291.436 25.4119 291.3 26.0511 291.292 26.8011ZM317.036 38.3707C314.982 38.3707 313.209 37.9659 311.717 37.1562C310.234 36.3381 309.092 35.1747 308.291 33.6662C307.499 32.1491 307.102 30.3466 307.102 28.2585C307.102 26.2301 307.503 24.4574 308.304 22.9403C309.105 21.4148 310.234 20.2301 311.692 19.3864C313.149 18.5341 314.866 18.108 316.844 18.108C318.241 18.108 319.52 18.3253 320.679 18.7599C321.838 19.1946 322.839 19.8381 323.683 20.6903C324.527 21.5426 325.183 22.5952 325.652 23.848C326.121 25.0923 326.355 26.5199 326.355 28.1307V29.6903H309.288V26.0597H320.538C320.53 25.3949 320.372 24.8026 320.065 24.2827C319.759 23.7628 319.337 23.358 318.8 23.0682C318.271 22.7699 317.662 22.6207 316.972 22.6207C316.273 22.6207 315.646 22.7784 315.092 23.0938C314.538 23.4006 314.099 23.8224 313.776 24.3594C313.452 24.8878 313.281 25.4886 313.264 26.1619V29.8565C313.264 30.6577 313.422 31.3608 313.737 31.9659C314.053 32.5625 314.5 33.027 315.08 33.3594C315.659 33.6918 316.349 33.858 317.151 33.858C317.705 33.858 318.207 33.7812 318.659 33.6278C319.111 33.4744 319.499 33.2486 319.822 32.9503C320.146 32.652 320.389 32.2855 320.551 31.8509L326.291 32.017C326.053 33.304 325.528 34.4247 324.719 35.3793C323.918 36.3253 322.865 37.0625 321.561 37.5909C320.257 38.1108 318.749 38.3707 317.036 38.3707Z" fill="white"/>
</g>
<defs>
<clipPath id="clip0_20_5">
<rect width="328" height="50" fill="white"/>
</clipPath>
</defs>
</svg>
